<svg width="20" height="28" viewBox="0 0 20 28" fill="none" xmlns="http://www.w3.org/2000/svg">
<path fill-rule="evenodd" clip-rule="evenodd" d="M10.8781 14.6275C12.845 14.1549 13.7609 16.5837 11.7887 17.0863C9.77517 17.5988 8.74345 15.1393 10.8781 14.6275V14.6275ZM9.92227 24.9913L9.96021 24.96C10.1965 25.0385 10.6751 26.5908 12.3758 27.05C14.595 27.6498 17.1616 26.4343 18.4995 24.3602C18.8829 23.7652 20.0797 21.6352 19.064 21.2138C18.1754 20.8457 17.8239 22.9145 17.2621 23.7565C16.6591 24.6598 15.6127 25.36 14.5657 25.6063C10.9979 26.4463 10.6165 23.3631 10.6491 20.6407C12.4284 20.1076 14.354 17.8098 14.2369 15.8689C14.0918 13.4659 10.7437 12.7258 8.83597 13.1018C6.32124 13.5984 4.90013 15.3077 6.19344 17.8524C7.65116 20.7173 9.23401 20.1568 9.3059 20.9902C9.5655 23.9855 7.81357 27.3116 4.11203 25.0984C3.22075 24.5653 2.61171 23.7805 2.16773 22.8486C2.00266 22.5025 1.74639 21.506 1.60062 21.3496C1.18194 20.903 0.437771 21.2444 0.461734 21.9234C0.524968 23.7159 2.49189 26.0117 4.10603 26.6779C6.32922 27.5965 8.80868 27.3769 9.92227 24.9919V24.9913ZM14.1463 11.3246C13.6345 10.1352 13.1392 8.95167 13.934 7.67434C14.6662 6.49818 16.0687 6.45624 17.1057 7.26365C19.277 8.95234 19.2743 13.1504 16.5333 12.9674C18.0356 12.4788 18.4875 10.8946 17.7806 9.50747L16.1612 10.7349L16.6997 8.64948C14.7913 8.17555 14.1017 9.70782 14.1463 11.324V11.3246ZM14.9917 5.33866C10.0195 6.35041 12.3412 15.2358 17.2308 14.3685C22.1831 13.4899 19.9113 4.33756 14.9917 5.33866V5.33866ZM4.30306 10.5612L2.7415 9.34572C2.28289 9.82697 2.24361 10.7422 2.43531 11.3566C2.66362 12.0881 2.9545 12.2845 3.52028 12.6832C0.759269 12.4549 1.16131 8.89509 2.75681 7.25166C3.57553 6.40898 4.89347 6.08016 5.86395 6.89422C6.90699 7.76752 6.65405 9.23856 6.3878 10.3721C5.95181 9.64659 6.06098 8.73468 4.74104 8.45844C3.27201 8.15159 3.92898 8.74999 4.30306 10.5612V10.5612ZM4.06676 5.03713C-1.09849 5.89179 -1.07653 14.9217 4.0834 14.083C9.23002 13.2456 9.20672 4.18712 4.06676 5.03713V5.03713ZM13.4241 0.827712C12.6826 0.947524 12.5775 1.82149 13.0534 2.13833C13.536 2.45916 14.756 1.78222 16.04 3.69323C16.3555 4.16316 16.4887 4.90467 17.135 4.82413C18.9076 4.60314 16.0926 0.397717 13.4241 0.827712V0.827712ZM5.02526 0.843687C3.88438 1.0081 2.94851 1.71699 2.28821 2.63422C0.677397 4.87671 2.29154 5.20353 2.74816 4.52593C3.37185 3.60071 3.70067 2.57897 5.00064 2.29275C5.53979 2.17427 6.51959 2.4565 6.47167 1.50066C6.43173 0.71389 5.59504 0.761815 5.0246 0.844352L5.02526 0.843687Z" fill="#222327"/>
</svg>
