<svg width="40" height="40" viewBox="0 0 40 40" fill="none" xmlns="http://www.w3.org/2000/svg">
<path fill-rule="evenodd" clip-rule="evenodd" d="M1.756 28.8117C0.531244 30.6355 -0.251532 31.604 0.0739593 34.0568C0.30826 35.818 1.25545 37.4781 2.73979 38.4532C4.36525 39.5222 6.45398 39.7073 8.20058 38.8074C10.0843 37.8355 10.6008 36.7339 11.3463 34.8602L28.6153 34.8629C29.3788 36.7712 29.8847 37.8469 31.8083 38.8313C35.3168 40.6265 39.6674 37.9454 39.9243 33.6767C39.9882 32.617 39.8231 31.5733 39.3878 30.6049C38.8806 29.4753 38.4613 29.3229 37.8815 28.4749C38.6716 26.7622 38.9438 25.3398 38.1025 23.5412C36.6381 20.4101 32.5824 19.7605 30.3413 22.5721C29.8394 23.2011 29.8634 24.091 29.5419 24.8379C29.233 25.5561 28.8696 26.0992 28.4336 26.7342C31.8902 27.2854 29.6357 25.1627 31.6958 23.1532C33.1662 21.7201 35.2117 21.985 36.493 23.5193C38.4726 25.8902 36.2281 27.8998 36.2481 28.6845C36.264 29.3302 38.6536 30.3126 38.5977 33.3359C38.5198 37.5214 33.5303 39.6454 30.8758 36.3399C28.1254 32.9152 33.7047 33.4058 19.9103 33.4058H13.0457C12.3048 33.4058 10.3858 33.0923 10.1276 33.9643C9.80474 35.0532 9.82138 35.4353 9.05458 36.3792C6.37211 39.6827 1.32667 37.4408 1.36394 33.1908C1.37193 32.2669 1.63685 31.3177 2.15138 30.5503C2.61931 29.8527 3.72558 29.213 3.27429 28.4868C2.69053 27.5483 2.28051 27.4152 2.182 26.1026C1.93172 22.7684 5.60198 21.0185 7.80454 23.1905C9.7262 25.0855 7.49635 27.3406 11.1733 26.7329C10.734 26.1086 10.288 25.4968 10.0457 24.7873C9.7475 23.9153 9.6583 23.285 9.07388 22.5521C7.9989 21.2049 6.24165 20.514 4.5463 20.896C0.98986 21.6981 -0.0864563 25.795 1.756 28.8117Z" fill="#222327"/>
<path fill-rule="evenodd" clip-rule="evenodd" d="M20.4376 14.4334C22.4045 13.9608 23.3204 16.3896 21.3481 16.8922C19.3346 17.4047 18.3029 14.9452 20.4376 14.4334ZM19.4817 24.7972L19.5197 24.7659C19.756 24.8444 20.2345 26.3967 21.9352 26.8559C24.1544 27.4557 26.7211 26.2402 28.059 24.1661C28.4424 23.5711 29.6392 21.4411 28.6234 21.0197C27.7348 20.6516 27.3834 22.7204 26.8216 23.5624C26.2185 24.4657 25.1722 25.1659 24.1251 25.4122C20.5574 26.2522 20.176 23.169 20.2086 20.4466C21.9878 19.9135 23.9135 17.6157 23.7963 15.6748C23.6512 13.2719 20.3031 12.5317 18.3954 12.9078C15.8807 13.4043 14.4596 15.1136 15.7529 17.6583C17.2106 20.5232 18.7935 19.9627 18.8653 20.7961C19.1249 23.7914 17.373 27.1175 13.6715 24.9043C12.7802 24.3712 12.1712 23.5864 11.7272 22.6545C11.5621 22.3084 11.3058 21.3119 11.1601 21.1555C10.7414 20.7089 9.99722 21.0504 10.0212 21.7293C10.0844 23.5218 12.0513 25.8176 13.6655 26.4839C15.8887 27.4024 18.3681 27.1828 19.4817 24.7978V24.7972ZM23.7058 11.1305C23.1939 9.94106 22.6987 8.75758 23.4934 7.48024C24.2256 6.30408 25.6281 6.26215 26.6652 7.06955C28.8364 8.75825 28.8338 12.9563 26.0927 12.7733C27.595 12.2847 28.047 10.7005 27.3401 9.31338L25.7206 10.5408L26.2591 8.45539C24.3508 7.98146 23.6612 9.51373 23.7058 11.1299V11.1305ZM24.5511 5.14456C19.5789 6.15632 21.9006 15.0418 26.7903 14.1744C31.7425 13.2958 29.4708 4.14346 24.5511 5.14456ZM13.8625 10.3671L12.301 9.15163C11.8423 9.63288 11.8031 10.5481 11.9948 11.1625C12.2231 11.894 12.514 12.0904 13.0797 12.4891C10.3187 12.2608 10.7208 8.701 12.3163 7.05757C13.135 6.21489 14.4529 5.88607 15.4234 6.70013C16.4664 7.57343 16.2135 9.04447 15.9472 10.178C15.5113 9.45249 15.6204 8.54059 14.3005 8.26435C12.8315 7.9575 13.4884 8.5559 13.8625 10.3671ZM13.6262 4.84304C8.46096 5.6977 8.48292 14.7276 13.6429 13.8889C18.7895 13.0515 18.7662 3.99303 13.6262 4.84304ZM22.9836 0.63362C22.2421 0.753432 22.1369 1.6274 22.6128 1.94424C23.0954 2.26507 24.3155 1.58813 25.5995 3.49914C25.915 3.96907 26.0481 4.71058 26.6944 4.63004C28.467 4.40905 25.6521 0.203626 22.9836 0.63362ZM14.5847 0.649595C13.4438 0.814004 12.508 1.5229 11.8477 2.44013C10.2368 4.68262 11.851 5.00944 12.3076 4.33184C12.9313 3.40662 13.2601 2.38488 14.5601 2.09866C15.0992 1.98018 16.079 2.26241 16.0311 1.30657C15.9912 0.519798 15.1545 0.567723 14.584 0.65026L14.5847 0.649595Z" fill="#222327"/>
</svg>
